<?xml version="1.0" encoding="UTF-8"?>
<!-- Generated by Pixelmator Pro 3.7.1 -->
<svg width="1517" height="457" viewBox="0 0 1517 457" xmlns="http://www.w3.org/2000/svg" xmlns:xlink="http://www.w3.org/1999/xlink">
    <g id="Logo-With-Text">
        <g id="Logo">
            <path id="Oval" fill="#0b5394" fill-rule="evenodd" stroke="none" d="M 442.648346 229.803543 C 442.648346 111.309723 346.590118 15.251495 228.096298 15.251495 C 109.602463 15.251495 13.544247 111.309723 13.544247 229.803543 C 13.544247 348.297363 109.602463 444.355591 228.096298 444.355591 C 346.590118 444.355591 442.648346 348.297363 442.648346 229.803543 Z"/>
            <g id="Group">
                <g id="Letter-P">
                    <path id="P" fill="#6fa8dc" fill-rule="evenodd" stroke="none" d="M 192.18457 72.598145 L 302.633972 95.908569 C 339.905151 103.774536 365.747742 119.673462 380.162537 143.605713 C 394.577271 167.537842 397.707703 198.820923 389.553833 237.455688 L 379.625366 284.498901 C 371.471497 323.133667 355.966614 350.483765 333.110168 366.549805 C 310.253784 382.615967 280.19043 386.715942 242.91925 378.849854 L 207.46637 371.367554 L 191.457428 443.676636 L 116.460938 427.848633 Z M 257.30835 310.671265 C 269.580566 313.26123 279.504028 311.794922 287.079071 306.271973 C 294.654083 300.749146 300.168213 289.806396 303.621613 273.443481 L 315.564575 216.855103 C 319.017975 200.492188 318.396088 188.254395 313.698883 180.141479 C 309.001678 172.028564 300.51712 166.677124 288.244873 164.087158 L 252.791992 156.604858 L 221.855438 303.188843 Z"/>
                    <path id="path1" fill="#ffffff" fill-rule="evenodd" stroke="none" d="M 212.18457 53.598145 L 322.633972 76.908447 C 359.905151 84.774536 385.747742 100.673462 400.162537 124.605713 C 414.577271 148.537842 417.707703 179.820923 409.553833 218.455688 L 399.625366 265.498901 C 391.471497 304.133667 375.966614 331.483765 353.110168 347.549805 C 330.253784 363.615967 300.19043 367.715942 262.91925 359.849854 L 227.46637 352.367554 L 206.457428 450.676636 L 131.460938 434.848633 Z M 277.30835 291.671265 C 289.580566 294.26123 299.504028 292.794922 307.079071 287.271973 C 314.654083 281.749146 320.168213 270.806396 323.621613 254.443481 L 335.564575 197.855103 C 339.017944 181.492188 338.396088 169.254395 333.698883 161.141479 C 329.001678 153.028564 320.51712 147.677124 308.244873 145.087158 L 272.791992 137.604858 L 241.855438 284.188843 Z"/>
                </g>
                <g id="Polecat">
                    <path id="Polecat-Body" fill="#cfe2f3" fill-rule="evenodd" stroke="none" d="M 88 394 L 97.110779 376.420288 L 108.140442 356.724487 L 112.867432 340.179932 L 153.046875 291.334351 L 182.196686 306.303101 L 217.649139 313.393677 L 234.981461 307.090942 L 242.07196 299.212646 L 225.527481 285.031738 L 209.770813 288.182983 L 192.438507 247.215698 L 196.377686 225.944214 L 201 208 L 210.558655 136.131348 L 211.346497 96.739746 L 201.104675 75.468262 L 189.28717 68.377686 L 178.257538 74.68042 L 158.561707 74.68042 L 141.229401 84.922241 L 137.290253 89.649292 L 126.26059 88.86145 L 121.5336 105.405884 L 129.411926 143.221802 L 126.26059 176.310791 L 104.201294 208.611938 L 47.477341 270.850708 L 19.903214 308.666626 C 19.903214 308.666626 29.437988 332.498901 45 352 C 63.268463 374.892578 88 394 88 394 Z"/>
                    <mask id="mask1" maskUnits="userSpaceOnUse" maskContentUnits="userSpaceOnUse" mask-type="alpha">
                        <path id="path2" fill="#cfe2f3" fill-rule="evenodd" stroke="none" d="M 88 394 L 97.110779 376.420288 L 108.140442 356.724487 L 112.867432 340.179932 L 153.046875 291.334351 L 182.196686 306.303101 L 217.649139 313.393677 L 234.981461 307.090942 L 242.07196 299.212646 L 225.527481 285.031738 L 209.770813 288.182983 L 192.438507 247.215698 L 196.377686 225.944214 L 201 208 L 210.558655 136.131348 L 211.346497 96.739746 L 201.104675 75.468262 L 189.28717 68.377686 L 178.257538 74.68042 L 158.561707 74.68042 L 141.229401 84.922241 L 137.290253 89.649292 L 126.26059 88.86145 L 121.5336 105.405884 L 129.411926 143.221802 L 126.26059 176.310791 L 104.201294 208.611938 L 47.477341 270.850708 L 19.903214 308.666626 C 19.903214 308.666626 29.437988 332.498901 45 352 C 63.268463 374.892578 88 394 88 394 Z"/>
                    </mask>
                    <g id="g1" mask="url(#mask1)">
                        <path id="Polecat-Shade" fill="#6fa8dc" fill-rule="evenodd" stroke="none" d="M 178.075043 69.892578 C 185.639923 66.88623 191.375885 65.61084 191.375885 65.61084 L 178.075043 69.892578 Z M 178.075043 69.892578 C 161.971649 76.29248 137.58075 90.536255 142.59021 117.019531 C 145.263489 131.1521 153.018097 133.011597 158.327545 138.5271 C 164.314758 144.746826 165.784821 143.08728 174.589417 149.543213 C 177.107544 151.389648 174.775208 151.89917 170.039276 152.93396 C 166.816528 153.638184 162.480713 154.585449 157.802948 156.362793 C 153.450409 158.016479 150.432129 161.765869 147.311401 165.805176 C 138.450104 177.27478 143.501221 203.536133 131.151215 212.4375 C 101.359863 233.910034 123.853271 249.3302 93.804535 264.425659 C 83.231323 269.737305 70.991547 270.095215 60.994644 292.89209 C 48.374619 321.670654 29 331 29 331 L 24 303 L 42 277 L 99 211 L 119 189 L 129 158 L 131 132 L 126 121 L 122 105 L 127 90 L 144 81 L 178.075043 69.892578 Z M 148.132721 235.209351 C 148.118195 235.206177 147.873749 236.243408 147.311401 238.721313 C 147.165894 239.362549 147.058411 240.017822 146.987579 240.685791 C 147.679535 237.461914 148.154022 235.213989 148.132721 235.209351 Z M 142.065643 263.376465 C 142.065643 263.376465 145.229004 248.87915 146.987579 240.685791 C 144.297821 266.050415 194.436005 309.817993 220.882507 303.989624 C 244.955261 298.684326 238.58783 306.391846 238.58783 306.391846 C 238.58783 306.391846 220.292908 315.751465 184.031799 306.391846 C 174.188507 303.851074 156.753784 292.752808 156.753784 292.752808 L 142.065643 263.376465 Z"/>
                    </g>
                    <path id="Polecat-Outline" fill="#0b5394" stroke="none" d="M 212.933075 88.790039 C 213.908203 92.52771 216.196106 111.663818 213.716522 124.401611 C 215.622406 142.52124 197.961029 231.013428 197.856171 231.326294 C 191.856537 248.040161 203.618195 273.166504 208.95575 283.181274 C 209.706635 284.571899 211.120575 285.400757 212.855774 284.789063 C 214.388092 284.301392 216.298584 283.769165 218.448975 283.015381 C 222.085815 281.765259 227.354248 282.845825 232.32016 285.731201 C 237.699738 288.844604 241.526642 293.798584 242.387543 298.417358 C 244.293945 308.666382 226.085083 314.227905 223.9198 314.855591 C 223.87973 314.867188 222.753815 315.106689 222.438263 315.067749 C 191.7453 312.578003 174.865875 308.930054 155.808899 293.199463 C 150.182251 299.65564 124.134552 329.679932 118.065918 338.133179 C 115.513641 341.698364 113.95813 346.452759 112.155701 351.930542 C 109.585541 359.782959 97.538666 386.468628 90 396 C 94.107544 405.219604 13.605911 334.6604 21.067261 310.393799 C 31.575363 276.245728 68.024719 241.687256 102.074615 205.605225 L 107.791656 199.535767 C 140.010162 165.30835 122.640839 119.639526 122.461243 119.170044 C 122.394684 119.015381 122.402527 118.817505 122.376068 118.651367 C 120.005524 111.449097 119.253784 103.908325 120.293365 97.673584 C 121.405609 90.939575 124.473541 86.529297 128.924347 85.238892 C 132.392517 84.233521 135.184845 84.119385 137.537262 84.437134 C 141.46933 80.23291 156.266174 66.575684 178.484192 70.87085 C 179.888947 68.594482 182.395111 66.368408 186.736664 65.000977 C 189.858673 64.074219 192.739319 64.564941 196.003601 66.378662 C 203.831055 70.738037 211.381409 82.763062 212.933075 88.790039 Z M 214.497345 289.849487 C 210.476685 291.124146 206.211975 289.382935 204.256561 285.71167 L 204.261261 285.715576 C 198.585358 275.057861 186.128906 248.285156 192.854828 229.578735 C 199.721313 210.457031 208.633331 162.40918 208.806946 134.670044 C 208.535217 134.857422 208.312714 135.139282 208.029388 135.286621 C 207.860535 135.379028 207.671692 135.477295 207.491241 135.529541 C 207.310852 135.581909 207.138824 135.588257 206.946777 135.600464 C 206.613861 137.000977 206.148987 138.39624 205.37384 139.62085 C 200.774139 146.844116 189.850311 148.446289 187.012604 148.703857 C 183.897247 150.476318 181.035889 152.001343 178.289215 152.797729 C 173.13678 154.291504 168.793732 154.529053 165.012787 152.58252 C 164.487091 152.312012 163.990036 151.972382 163.538071 151.663544 C 162.782166 151.147034 162.15242 150.716705 161.725861 150.840332 L 161.64563 150.863647 C 160.783417 151.113647 152.022278 149.306519 137.273529 140.564209 C 135.201477 139.339478 133.269653 136.574219 131.648499 134.805664 C 134.134491 152.450562 133.358673 180.211914 111.705231 203.202637 L 105.98819 209.271973 C 72.289368 244.991333 36.336441 278.995117 26.198547 311.966064 C 19.853149 332.602905 84.562866 395.30542 87 393 C 91.332001 388.9021 110.709045 339.281982 113.757721 335.029419 C 120.140503 326.159058 146.810425 295.432983 152.048615 289.437256 C 150.208405 287.362671 148.597168 285.178223 147.214752 282.884033 C 135.738068 263.912598 143.805267 244.360596 144.154785 243.541992 C 144.723022 242.203735 146.294678 241.552368 147.658875 242.134888 C 149.017242 242.697388 149.648499 244.27478 149.085999 245.633179 C 149.084915 245.636063 149.08226 245.642776 149.078125 245.653259 C 148.801498 246.353058 141.884048 263.85321 151.826416 280.199585 C 161.98349 296.94519 185.598389 306.9646 222.016205 310.011841 C 228.639526 307.743896 237.68924 302.751099 236.939941 298.817261 C 236.354675 295.748779 233.514496 292.399292 229.53714 290.074951 C 226.082947 288.05542 222.188446 287.141602 220.161499 287.946533 C 217.970917 288.712036 216.0495 289.355957 214.497345 289.849487 Z M 130.415466 90.37085 C 128.089722 91.045044 126.306458 94.039917 125.572754 98.555908 C 123.678528 110.014771 128.662933 127.282471 140.002258 135.209595 C 148.339966 141.029297 154.17337 142.859009 157.375458 143.408569 C 155.438293 139.275635 155.018829 135.354858 155.003418 135.076782 C 154.877228 133.592041 155.979034 132.294556 157.423645 132.180054 C 158.888397 132.059692 160.200043 133.135498 160.320404 134.600342 C 160.323639 134.686157 161.224884 143.792236 167.200714 146.862915 C 171.363678 149.00293 177.274567 147.876099 184.787018 143.503052 C 185.138916 143.292358 185.559937 143.170288 185.984131 143.134277 C 189.062958 142.958984 197.750671 141.440063 200.822815 136.593872 C 202.435883 134.061523 202.432007 130.824463 200.796234 126.756348 C 200.228943 125.399536 200.905273 123.834106 202.268036 123.286987 C 203.602234 122.791504 205.195984 123.416138 205.743225 124.778809 C 206.290436 126.141602 206.694061 127.458984 206.954224 128.731079 C 210.703156 121.645752 209.803009 97.999634 207.770996 90.091064 C 206.632874 85.639526 200.153381 74.760254 193.418091 71.018799 C 191.498535 69.945313 189.716492 69.570801 188.362213 70.072266 C 181.431732 72.255371 182.30307 76.610107 182.314728 76.650391 C 182.647156 78.096924 181.694794 79.459717 180.285614 79.84668 C 178.838867 80.178955 177.421753 79.26416 177.089294 77.817383 C 176.98407 77.304688 176.94162 76.708496 176.961945 76.028809 C 159.875458 72.940918 147.859131 81.945068 143.013763 86.522827 C 144.681732 87.777954 145.691223 89.310913 146.117554 90.556519 C 146.590363 91.962524 145.856476 93.47937 144.45047 93.952148 C 142.83551 94.529053 141.56778 93.679443 141.066467 92.325195 C 140.875336 91.815552 138.976379 87.888916 130.415466 90.37085 Z M 180.888214 125.20105 C 172.187973 129.375244 177.211838 139.806793 185.911972 135.632782 C 194.606384 131.438568 189.58252 121.006958 180.888214 125.20105 Z M 149.102463 123.659576 C 151.252991 131.077484 162.380127 127.851624 160.229553 120.433716 C 158.084839 113.035828 146.957733 116.261688 149.102463 123.659576 Z M 137.709808 121.248444 C 135.748856 110.211365 143.600006 99.285156 143.697418 99.170105 C 144.570221 97.982513 144.299881 96.300476 143.112274 95.427673 C 141.924759 94.554871 140.256882 94.799347 139.389908 96.006958 L 139.378387 96.023102 C 138.86557 96.741241 130.121613 108.986389 132.460739 122.183899 C 132.707184 123.63382 134.09584 124.600464 135.565811 124.348145 L 135.846466 124.266785 C 137.129593 123.894775 137.967499 122.586884 137.709991 121.248901 L 137.709808 121.248444 Z M 188.673965 106.623505 C 190.824539 114.041412 201.951675 110.815521 199.801147 103.397614 C 197.656387 95.999725 186.529251 99.225586 188.673965 106.623505 Z M 187.382416 83.418518 C 187.395248 83.417419 187.416595 83.41507 187.44603 83.411804 C 188.389435 83.30722 197.631332 82.282776 200.522812 92.909821 C 200.915466 94.33905 202.206696 94.594971 203.630173 94.182281 L 203.670273 94.170654 C 205.07373 93.763794 205.983948 92.630554 205.597137 91.221344 C 202.27533 79.013672 192.216049 78.126556 187.12851 78.493225 C 185.683853 78.607758 184.535599 79.744781 184.635925 81.215363 C 184.730438 82.665833 185.912216 83.518585 187.382416 83.418518 Z"/>
                </g>
            </g>
            <path id="Oval-copy" fill="#6fa8dc" fill-rule="evenodd" stroke="none" d="M 228.096283 2.661652 C 353.543304 2.661652 455.23819 104.356537 455.23819 229.803558 C 455.23819 355.250549 353.543304 456.945435 228.096283 456.945435 C 102.649292 456.945435 0.954395 355.250549 0.954395 229.803558 C 0.954395 104.356537 102.649292 2.661652 228.096283 2.661652 Z M 228.096283 15.251495 C 346.590118 15.251495 442.648346 111.309723 442.648346 229.803558 C 442.648346 348.297363 346.590118 444.355591 228.096283 444.355591 C 109.60247 444.355591 13.544246 348.297363 13.544246 229.803558 C 13.544246 111.309723 109.60247 15.251495 228.096283 15.251495 Z"/>
        </g>
        <path id="OLECAT" fill="#0b5394" fill-rule="evenodd" stroke="none" d="M 1085.755127 411.025391 C 1059.287598 411.025391 1039.102295 403.487305 1025.198486 388.410889 C 1011.294678 373.334473 1004.342896 352.060303 1004.342896 324.587769 L 1004.342896 135.630859 C 1004.342896 108.158203 1011.294678 86.884033 1025.198486 71.807617 C 1039.102295 56.731201 1059.287598 49.193115 1085.755127 49.193115 C 1112.222656 49.193115 1132.407959 56.731201 1146.311768 71.807617 C 1160.215576 86.884033 1167.16748 108.158203 1167.16748 135.630859 L 1167.16748 172.819214 L 1114.902832 172.819214 L 1114.902832 132.113037 C 1114.902832 110.335938 1105.689453 99.447632 1087.262817 99.447632 C 1068.83606 99.447632 1059.622803 110.335938 1059.622803 132.113037 L 1059.622803 328.608154 C 1059.622803 350.050049 1068.83606 360.770996 1087.262817 360.770996 C 1105.689453 360.770996 1114.902832 350.050049 1114.902832 328.608154 L 1114.902832 274.835815 L 1167.16748 274.835815 L 1167.16748 324.587769 C 1167.16748 352.060303 1160.215576 373.334473 1146.311768 388.410889 C 1132.407959 403.487305 1112.222656 411.025391 1085.755127 411.025391 Z M 835.487793 54.218506 L 986.251221 54.218506 L 986.251221 104.473145 L 890.7677 104.473145 L 890.7677 197.443848 L 966.651978 197.443848 L 966.651978 247.698364 L 890.7677 247.698364 L 890.7677 355.745483 L 986.251221 355.745483 L 986.251221 406 L 835.487793 406 Z M 672.663269 54.218506 L 727.943237 54.218506 L 727.943237 355.745483 L 818.903809 355.745483 L 818.903809 406 L 672.663269 406 Z M 561.60083 411.025391 C 534.463257 411.025391 513.69165 403.319824 499.285278 387.908447 C 484.878906 372.496948 477.675842 350.720215 477.675842 322.577515 L 477.675842 137.640991 C 477.675842 109.498413 484.878906 87.72168 499.285278 72.310181 C 513.69165 56.898682 534.463257 49.193115 561.60083 49.193115 C 588.738403 49.193115 609.510071 56.898682 623.916382 72.310181 C 638.322754 87.72168 645.525879 109.498413 645.525879 137.640991 L 645.525879 322.577515 C 645.525879 350.720215 638.322754 372.496948 623.916382 387.908447 C 609.510071 403.319824 588.738403 411.025391 561.60083 411.025391 Z M 561.60083 360.770996 C 580.697632 360.770996 590.245911 349.212524 590.245911 326.095337 L 590.245911 134.123291 C 590.245911 111.006104 580.697632 99.447632 561.60083 99.447632 C 542.504028 99.447632 532.955811 111.006104 532.955811 134.123291 L 532.955811 326.095337 C 532.955811 349.212524 542.504028 360.770996 561.60083 360.770996 Z M 1307.880005 54.218506 L 1233.000732 54.218506 L 1175.710693 406 L 1226.970215 406 L 1237.02124 337.151367 L 1299.839355 337.151367 L 1299.839355 336.14624 L 1309.890137 406 L 1365.170166 406 L 1307.880005 54.218506 Z M 1344.063232 104.473145 L 1401.855957 104.473145 L 1401.855957 406 L 1457.135742 406 L 1457.135742 104.473145 L 1514.928467 104.473145 L 1514.928467 54.218506 L 1344.063232 54.218506 L 1344.063232 104.473145 Z M 1268.681519 115.529053 L 1293.306152 289.409546 L 1243.554199 289.409546 L 1267.676392 115.529053 L 1268.681519 115.529053 Z"/>
    </g>
</svg>
